<svg width="24" height="24" viewBox="0 0 24 24" fill="none" xmlns="http://www.w3.org/2000/svg">
<path d="M11.9161 20.7501C11.5353 20.7505 11.2068 20.7508 10.9177 20.6733C10.1412 20.4653 9.5347 19.8588 9.3267 19.0824C9.2492 18.7932 9.2495 18.4647 9.2499 18.0839V5.9161C9.2495 5.5353 9.2492 5.2068 9.3267 4.9177C9.5347 4.1412 10.1412 3.5347 10.9177 3.3267C11.2068 3.2492 11.5353 3.2495 11.9161 3.2499C12.2969 3.2495 12.7932 3.2492 13.0823 3.3267C13.8588 3.5347 14.4653 4.1412 14.6733 4.9177C14.7508 5.2068 14.7505 5.5353 14.7501 5.9161V18.0839C14.7505 18.4647 14.7508 18.7932 14.6733 19.0824C14.4653 19.8588 13.8588 20.4653 13.0823 20.6733C12.7932 20.7508 12.2969 20.7505 11.9161 20.7501Z" fill="black"/>
<path d="M4.9161 20.7501C4.5353 20.7505 4.2068 20.7508 3.9177 20.6733C3.1412 20.4653 2.5347 19.8588 2.3267 19.0824C2.2492 18.7932 2.2495 18.4647 2.2499 18.0839V15.9161C2.2495 15.5353 2.2492 15.2068 2.3267 14.9177C2.5347 14.1412 3.1412 13.5347 3.9177 13.3267C4.2068 13.2492 4.7031 13.2495 5.0839 13.2499C5.4647 13.2495 5.7932 13.2492 6.0823 13.3267C6.8588 13.5347 7.4653 14.1412 7.6733 14.9177C7.7508 15.2068 7.7505 15.5353 7.7501 15.9161V18.0839C7.7505 18.4647 7.7508 18.7932 7.6733 19.0824C7.4653 19.8588 6.8588 20.4653 6.0823 20.6733C5.7932 20.7508 5.2969 20.7505 4.9161 20.7501Z" fill="black"/>
<path d="M18.9161 20.7501C18.5353 20.7505 18.2068 20.7508 17.9177 20.6733C17.1412 20.4653 16.5347 19.8588 16.3267 19.0824C16.2492 18.7932 16.2495 18.4647 16.2499 18.0839V11.9161C16.2495 11.5353 16.2492 11.2068 16.3267 10.9177C16.5347 10.1412 17.1412 9.5347 17.9177 9.3267C18.2068 9.2492 18.5353 9.2495 18.9161 9.2499C19.2969 9.2495 19.7932 9.2492 20.0823 9.3267C20.8588 9.5347 21.4653 10.1412 21.6733 10.9177C21.7508 11.2068 21.7505 11.5353 21.7501 11.9161V18.0839C21.7505 18.4647 21.7508 18.7932 21.6733 19.0824C21.4653 19.8588 20.8588 20.4653 20.0823 20.6733C19.7932 20.7508 19.2969 20.7505 18.9161 20.7501Z" fill="black"/>
</svg>
