<svg width="24" height="24" viewBox="0 0 24 24" fill="none" xmlns="http://www.w3.org/2000/svg">
<g clip-path="url(#clip0_2499_5705)">
<path d="M16.2539 5.36133C14.5078 5.36133 13.0781 6.42774 12.1641 6.42774C11.1914 6.42774 9.92578 5.36133 8.40235 5.36133C5.50781 5.36133 2.57812 7.82227 2.57812 12.3223C2.57812 15.1348 3.65625 18.0996 5.00391 20.0098C6.15235 21.627 7.16016 22.9278 8.61328 22.9278C10.043 22.9278 10.6758 22.002 12.457 22.002C14.2617 22.002 14.6719 22.9278 16.2539 22.9278C17.8242 22.9278 18.8672 21.4864 19.8633 20.0684C20.9649 18.4395 21.4336 16.8575 21.4453 16.7754C21.3516 16.752 18.3516 15.5215 18.3516 12.0879C18.3516 9.11133 20.707 7.77539 20.8477 7.66993C19.2891 5.43165 16.9102 5.36133 16.2539 5.36133ZM15.4336 3.46289C16.1485 2.59571 16.6524 1.41211 16.6524 0.216797C16.6524 0.0527346 16.6406 -0.111328 16.6172 -0.240234C15.4453 -0.193359 14.0391 0.533204 13.207 1.51758C12.5391 2.26758 11.9297 3.46289 11.9297 4.65821C11.9297 4.84571 11.9648 5.02149 11.9766 5.08008C12.0469 5.0918 12.1641 5.11524 12.293 5.11524C13.3359 5.11524 14.6485 4.41211 15.4336 3.46289Z" fill="black" fill-opacity="0.85"/>
</g>
<defs>
<clipPath id="clip0_2499_5705">
<rect width="24" height="24" fill="white"/>
</clipPath>
</defs>
</svg>
